<?xml version="1.0"?>
<svg xmlns="http://www.w3.org/2000/svg" viewBox="0 0 192 192" width="512" height="512"><g id="_05-manner" data-name="05-manner"><path d="M188.656,118.338,152.908,71.169A15.894,15.894,0,0,0,139.57,64H127.219a32,32,0,1,0-62.438,0H52.43a15.894,15.894,0,0,0-13.338,7.169L3.341,118.341A16,16,0,0,0,16.1,144H48v40H64V144h64v40h16V144h31.9a16,16,0,0,0,12.756-25.662ZM96,41A16,16,0,1,1,80,57,16.019,16.019,0,0,1,96,41ZM16.1,128l35.93-47.41c.146-.193.276-.387.4-.592H73.785a31.9,31.9,0,0,0,18.747,8.809c-.158.076-.315.155-.469.242-.173.1-.337.206-.5.316s-.319.214-.472.334-.319.265-.472.406c-.09.082-.189.15-.275.236L76.687,104H48v16H80a8,8,0,0,0,5.657-2.343L88,115.313V128Zm87.9,0V115.313l2.343,2.344A8,8,0,0,0,112,120h32V104H115.313L101.657,90.343c-.087-.086-.186-.155-.275-.237-.153-.14-.307-.277-.471-.405s-.313-.228-.474-.336-.328-.216-.5-.314c-.154-.087-.311-.166-.469-.242A31.9,31.9,0,0,0,118.216,80l21.347,0c.127.2.265.4.411.6L175.9,128Z"/></g></svg>
