<svg id="Capa_1" enable-background="new 0 0 512 512" height="512" viewBox="0 0 512 512" width="512" xmlns="http://www.w3.org/2000/svg"><g><path d="m256 30h-165v391h165 165v-391z" fill="#665151"/><path d="m256 30h165v391h-165z" fill="#4d3535"/><path d="m316 60-23.21-15h-36.79-32.842l-27.158 15h-75v331h135 135v-331z" fill="#f3f5f9"/><path d="m391 60h-75l-23.21-15h-36.79v346h135z" fill="#e1e6f0"/><path d="m241 316h30v60h-30z" fill="#665151"/><path d="m256 316h15v60h-15z" fill="#4d3535"/><path d="m256 361h-30v151h30 30v-151z" fill="#ffbe40"/><path d="m256 361h30v151h-30z" fill="#ff9f40"/><path d="m256 120c-57.891 0-105 48.109-105 106s47.109 105 105 105 105-47.109 105-105-47.109-106-105-106z" fill="#665151"/><path d="m361 226c0-57.891-47.109-106-105-106v211c57.891 0 105-47.109 105-105z" fill="#4d3535"/><path d="m286 0h-30-30c-16.569 0-30 13.431-30 30v30h60 60v-30c0-16.569-13.431-30-30-30z" fill="#ffbe40"/><path d="m316 30c0-16.569-13.431-30-30-30h-30v60h60z" fill="#ff9f40"/><circle cx="256" cy="226" fill="#c1f261" r="75"/><path d="m331 226c0-41.353-33.647-75-75-75v150c41.353 0 75-33.647 75-75z" fill="#a0e65c"/><path d="m290.395 185.395-34.395 34.394-15 15-19.395-19.394-21.21 21.21 40.605 40.606 15-15 55.605-55.606z" fill="#79cc52"/><path d="m290.395 185.395-34.395 34.394v42.422l55.605-55.606z" fill="#59b348"/></g></svg>