<svg id="Icons" height="512" viewBox="0 0 74 74" width="512" xmlns="http://www.w3.org/2000/svg"><path d="m65.511 64a1 1 0 0 1 -.637-1.772 13.307 13.307 0 0 0 1.749-1.73 1 1 0 0 1 1.533 1.284 15.371 15.371 0 0 1 -2.01 1.99 1 1 0 0 1 -.635.228z"/><path d="m50.74 66.67a1.008 1.008 0 0 1 -.33-.056 16.225 16.225 0 1 1 19.99-22.35 16.268 16.268 0 0 1 1.247 10.406 1 1 0 1 1 -1.955-.42 14.276 14.276 0 0 0 -1.092-9.115 14.228 14.228 0 1 0 -17.53 19.591 1 1 0 0 1 -.33 1.944z"/><path d="m57.789 67.39a1 1 0 0 1 -.128-1.992 13.7 13.7 0 0 0 2.321-.5 1 1 0 0 1 .6 1.909 15.785 15.785 0 0 1 -2.66.577.955.955 0 0 1 -.133.006z"/><path d="m55.776 62.674a11.371 11.371 0 1 1 11.371-11.374 11.384 11.384 0 0 1 -11.371 11.374zm0-20.742a9.371 9.371 0 1 0 9.371 9.368 9.382 9.382 0 0 0 -9.371-9.368z"/><path d="m40.552 52.3h-.011a1 1 0 0 1 -.989-1.011l.3-27.4a1 1 0 0 1 .336-.737c5.982-5.308 16.833-6.274 24.196-2.152a1 1 0 0 1 .483.634l5.6 22.827a1 1 0 0 1 -1.944.477l-5.495-22.4c-6.528-3.427-15.828-2.623-21.175 1.825l-.3 26.951a1 1 0 0 1 -1.001.986z"/><path d="m42.887 23.377a1 1 0 0 1 -1-1v-11.089a3.1 3.1 0 0 1 1.26-2.467c3.351-2.487 7.61-3 12.646-1.518a3.061 3.061 0 0 1 2.168 2.491l1.373 9.631a1 1 0 1 1 -1.98.283l-1.374-9.632a1.05 1.05 0 0 0 -.751-.854c-4.464-1.311-8.029-.922-10.89 1.206a1.086 1.086 0 0 0 -.452.86v11.089a1 1 0 0 1 -1 1z"/><path d="m18.224 67.527a16.224 16.224 0 1 1 16.224-16.227 16.242 16.242 0 0 1 -16.224 16.227zm0-30.448a14.224 14.224 0 1 0 14.224 14.221 14.24 14.24 0 0 0 -14.224-14.221z"/><path d="m18.224 62.674a11.371 11.371 0 1 1 11.376-11.374 11.383 11.383 0 0 1 -11.376 11.374zm0-20.742a9.371 9.371 0 1 0 9.376 9.368 9.382 9.382 0 0 0 -9.376-9.368z"/><path d="m33.448 52.3a1 1 0 0 1 -1-.989l-.3-26.951c-5.348-4.445-14.648-5.248-21.177-1.822l-5.495 22.4a1 1 0 0 1 -1.944-.477l5.6-22.827a1 1 0 0 1 .484-.634c7.361-4.12 18.214-3.155 24.191 2.154a1 1 0 0 1 .336.737l.3 27.4a1 1 0 0 1 -.989 1.011z"/><path d="m31.113 23.377a1 1 0 0 1 -1-1v-11.089a1.086 1.086 0 0 0 -.452-.86c-2.861-2.128-6.422-2.517-10.891-1.206a1.051 1.051 0 0 0 -.75.854l-1.374 9.632a1 1 0 1 1 -1.98-.283l1.373-9.631a3.061 3.061 0 0 1 2.167-2.494c5.041-1.479 9.3-.969 12.647 1.518a3.1 3.1 0 0 1 1.26 2.467v11.092a1 1 0 0 1 -1 1z"/><path d="m40.856 24.9a.993.993 0 0 1 -.464-.115 6.837 6.837 0 0 0 -6.784 0 1 1 0 0 1 -.931-1.77 8.822 8.822 0 0 1 8.646 0 1 1 0 0 1 -.467 1.885z"/><path d="m37.131 53.322a8.813 8.813 0 0 1 -4.153-1.136 1 1 0 1 1 .941-1.765 5.736 5.736 0 0 0 6.108.031 1 1 0 1 1 1.049 1.7 7.432 7.432 0 0 1 -3.945 1.17z"/><path d="m33.377 45.788a1 1 0 0 1 -.353-1.936 9.763 9.763 0 0 1 8.046.041 1 1 0 1 1 -.894 1.789c-1.835-.918-3.944-.9-6.447.041a.991.991 0 0 1 -.352.065z"/></svg>